<?xml version="1.0" standalone="no"?>
<!DOCTYPE svg PUBLIC "-//W3C//DTD SVG 20010904//EN"
 "http://www.w3.org/TR/2001/REC-SVG-20010904/DTD/svg10.dtd">
<svg version="1.0" xmlns="http://www.w3.org/2000/svg"
 width="200.000000pt" height="200.000000pt" viewBox="0 0 200.000000 200.000000"
 preserveAspectRatio="xMidYMid meet">
<metadata>
Created by potrace 1.16, written by Peter Selinger 2001-2019
</metadata>
<g transform="translate(0.000000,200.000000) scale(0.100000,-0.100000)"
fill="#000000" stroke="none">
<path d="M885 1479 c3 -3 -4 -9 -15 -12 -11 -3 -20 -10 -20 -17 0 -6 6 -8 13
-4 9 5 9 3 -1 -7 -7 -8 -18 -14 -25 -15 -44 -3 -74 -19 -90 -46 -25 -44 -22
-54 31 -73 26 -10 55 -25 65 -33 16 -15 16 -16 -2 -33 -10 -10 -22 -34 -25
-54 -4 -20 -14 -39 -21 -42 -8 -3 -12 -9 -9 -14 3 -5 2 -9 -3 -8 -26 7 -85
-16 -93 -35 -5 -11 -9 -17 -9 -12 -1 5 -8 2 -17 -5 -9 -8 -22 -14 -28 -14 -6
0 -12 -4 -13 -9 -1 -5 -7 -12 -14 -17 -7 -4 -14 -13 -15 -21 -1 -7 -6 -22 -10
-32 -5 -13 -4 -17 4 -12 11 7 46 -21 53 -43 4 -10 31 -14 79 -11 8 1 43 -1 77
-3 l61 -4 63 111 c80 141 118 198 129 191 12 -7 38 4 44 20 3 8 0 17 -6 21 -7
5 -8 2 -3 -6 5 -9 4 -11 -3 -6 -19 12 -14 28 7 21 11 -3 23 0 27 6 5 8 3 9 -6
4 -8 -5 -3 6 9 24 32 45 36 121 7 137 -13 6 -28 7 -38 2 -14 -7 -19 -3 -24 17
-3 14 -9 26 -13 27 -46 11 -171 17 -166 7z m163 -34 c-3 -3 -9 2 -12 12 -6 14
-5 15 5 6 7 -7 10 -15 7 -18z"/>
<path d="M580 1054 c0 -8 5 -12 10 -9 6 3 10 10 10 16 0 5 -4 9 -10 9 -5 0
-10 -7 -10 -16z"/>
<path d="M754 888 c-5 -8 -2 -9 10 -5 13 5 17 3 13 -7 -4 -10 -1 -13 9 -9 19
7 18 19 -2 27 -21 8 -22 8 -30 -6z"/>
<path d="M535 710 c3 -5 11 -10 16 -10 6 0 7 5 4 10 -3 6 -11 10 -16 10 -6 0
-7 -4 -4 -10z"/>
<path d="M347 590 c-16 -16 -37 -30 -47 -30 -11 0 -24 -9 -30 -20 -8 -16 -6
-21 11 -31 17 -9 23 -8 30 2 6 11 13 11 27 3 14 -9 25 -8 52 7 19 10 29 18 23
19 -7 0 -13 6 -13 14 0 7 -10 21 -22 30 -13 9 -17 14 -9 10 9 -4 12 -3 7 4 -3
5 0 13 6 15 7 3 8 6 3 6 -6 1 -23 -12 -38 -29z"/>
<path d="M420 571 c0 -5 5 -13 10 -16 6 -3 10 -2 10 4 0 5 -4 13 -10 16 -5 3
-10 2 -10 -4z"/>
</g>
</svg>
