<?xml version="1.0" standalone="no"?>
<!DOCTYPE svg PUBLIC "-//W3C//DTD SVG 20010904//EN"
 "http://www.w3.org/TR/2001/REC-SVG-20010904/DTD/svg10.dtd">
<svg version="1.0" xmlns="http://www.w3.org/2000/svg"
 width="320.000000pt" height="120.000000pt" viewBox="0 0 320.000000 120.000000"
 preserveAspectRatio="xMidYMid meet">
<metadata>
Created by potrace 1.16, written by Peter Selinger 2001-2019
</metadata>
<g transform="translate(0.000000,120.000000) scale(0.100000,-0.100000)"
fill="#000000" stroke="none">
<path d="M347 1060 c8 -31 -6 -85 -32 -124 -26 -39 -24 -43 15 -21 71 40 187
2 234 -78 21 -34 26 -38 26 -19 0 31 26 92 51 118 l20 21 -70 11 c-79 14 -143
39 -205 82 -38 26 -43 27 -39 10z"/>
<path d="M202 533 c-47 -23 -75 -67 -79 -127 -9 -112 78 -185 192 -165 30 5
50 18 78 49 34 39 37 48 37 100 0 43 -6 66 -23 91 -42 64 -134 87 -205 52z"/>
<path d="M946 421 c-4 -7 -5 -15 -2 -18 9 -9 19 4 14 18 -4 11 -6 11 -12 0z"/>
<path d="M1537 423 c-4 -3 -7 -15 -7 -25 0 -10 -7 -18 -17 -18 -17 -1 -17 -1
0 -14 12 -9 17 -27 17 -60 0 -25 5 -46 10 -46 6 0 10 22 10 49 0 30 5 52 13
55 10 5 10 7 0 12 -15 7 -17 34 -3 34 6 0 10 5 10 10 0 11 -23 14 -33 3z"/>
<path d="M1740 420 c-16 -10 -9 -152 8 -158 8 -2 12 8 12 32 0 45 14 46 42 1
31 -47 58 -48 29 -1 -19 29 -19 35 -6 46 16 13 20 47 7 67 -9 14 -75 23 -92
13z m65 -24 c25 -18 13 -46 -20 -46 -21 0 -25 5 -25 30 0 33 15 38 45 16z"/>
<path d="M3066 421 c-4 -7 -5 -15 -2 -18 9 -9 19 4 14 18 -4 11 -6 11 -12 0z"/>
<path d="M780 340 c0 -47 4 -80 10 -80 6 0 10 28 10 63 l1 62 14 -32 c8 -18
19 -33 25 -33 6 0 19 15 30 33 l20 32 0 -62 c0 -35 4 -63 10 -63 6 0 10 33 10
80 0 92 -16 106 -49 43 l-19 -38 -18 38 c-30 62 -44 48 -44 -43z"/>
<path d="M2500 340 c0 -47 4 -80 10 -80 6 0 10 23 10 50 0 47 2 50 25 50 23 0
25 -3 25 -51 0 -35 4 -49 12 -47 8 3 11 22 9 54 -4 61 -6 64 -42 64 -22 0 -29
5 -29 20 0 11 -4 20 -10 20 -6 0 -10 -33 -10 -80z"/>
<path d="M2810 340 c0 -47 4 -80 10 -80 6 0 10 33 10 80 0 47 -4 80 -10 80 -6
0 -10 -33 -10 -80z"/>
<path d="M1610 395 c0 -8 -5 -15 -11 -15 -8 0 -8 -4 -1 -13 6 -7 12 -33 14
-57 2 -38 7 -46 26 -48 12 -2 22 1 22 7 0 6 -7 11 -15 11 -11 0 -15 11 -15 40
0 29 4 40 15 40 8 0 15 5 15 10 0 6 -7 10 -15 10 -8 0 -15 7 -15 15 0 8 -4 15
-10 15 -5 0 -10 -7 -10 -15z"/>
<path d="M940 320 c0 -33 4 -60 10 -60 6 0 10 27 10 60 0 33 -4 60 -10 60 -6
0 -10 -27 -10 -60z"/>
<path d="M1002 368 c-15 -15 -16 -63 -2 -89 7 -12 21 -19 40 -19 38 0 39 18 3
22 -25 3 -28 7 -28 38 0 31 3 35 28 38 15 2 27 8 27 13 0 13 -54 11 -68 -3z"/>
<path d="M1090 320 c0 -33 4 -60 10 -60 6 0 10 20 10 44 0 34 5 47 23 59 22
16 22 16 -10 16 l-33 1 0 -60z"/>
<path d="M1169 354 c-16 -45 7 -94 45 -94 32 0 46 19 46 60 0 43 -15 60 -52
60 -22 0 -31 -6 -39 -26z m66 -34 c0 -28 -4 -36 -21 -38 -16 -2 -23 3 -26 20
-7 40 2 59 25 56 18 -2 22 -10 22 -38z"/>
<path d="M1286 364 c-4 -10 5 -25 24 -42 37 -32 38 -42 5 -42 -14 0 -25 -4
-25 -10 0 -5 15 -10 34 -10 53 0 60 44 10 70 -29 16 -26 36 4 32 12 -2 22 2
22 7 0 18 -67 13 -74 -5z"/>
<path d="M1402 368 c-17 -17 -15 -83 2 -97 8 -7 27 -11 43 -9 57 6 53 118 -5
118 -15 0 -33 -5 -40 -12z m63 -28 c10 -33 -4 -62 -28 -58 -22 3 -34 35 -23
64 8 21 44 17 51 -6z"/>
<path d="M1882 368 c-7 -7 -12 -28 -12 -48 0 -45 15 -60 57 -60 42 0 43 18 1
22 -45 4 -49 28 -4 28 42 0 49 10 36 44 -7 20 -17 26 -38 26 -15 0 -33 -5 -40
-12z m58 -23 c0 -9 -9 -15 -25 -15 -16 0 -25 6 -25 15 0 9 9 15 25 15 16 0 25
-6 25 -15z"/>
<path d="M1990 356 c0 -14 10 -30 25 -40 14 -9 25 -21 25 -26 0 -6 -11 -10
-25 -10 -14 0 -25 -4 -25 -10 0 -5 15 -10 34 -10 53 0 60 44 10 70 -29 16 -26
36 4 32 11 -2 23 2 27 8 4 6 -9 10 -34 10 -37 0 -41 -3 -41 -24z"/>
<path d="M2102 368 c-7 -7 -12 -28 -12 -48 0 -45 15 -60 57 -60 42 0 43 18 1
22 -46 4 -49 28 -4 28 41 0 54 17 36 49 -12 24 -58 29 -78 9z m58 -23 c0 -9
-9 -15 -25 -15 -24 0 -32 10 -18 23 12 13 43 7 43 -8z"/>
<path d="M2216 369 c3 -6 15 -9 25 -6 10 3 23 -1 30 -9 12 -15 6 -19 -36 -26
-15 -2 -20 -11 -20 -33 0 -28 3 -30 43 -33 l42 -3 0 48 c0 27 -5 54 -12 61
-15 15 -82 16 -72 1z m59 -69 c0 -8 -10 -16 -22 -18 -22 -3 -32 16 -16 32 12
11 38 2 38 -14z"/>
<path d="M2330 320 c0 -33 4 -60 10 -60 6 0 10 23 10 50 0 38 4 50 15 50 8 0
15 5 15 10 0 6 -11 10 -25 10 -24 0 -25 -3 -25 -60z"/>
<path d="M2406 364 c-10 -26 -7 -79 6 -92 14 -14 68 -16 68 -3 0 5 -12 11 -27
13 -24 3 -28 8 -31 41 -3 34 -1 37 22 37 14 0 28 5 31 10 4 6 -8 10 -28 10
-23 0 -37 -6 -41 -16z"/>
<path d="M2860 320 c0 -33 4 -60 10 -60 6 0 10 23 10 50 0 46 2 50 24 50 22 0
25 -5 28 -47 4 -60 28 -72 28 -13 0 62 -13 80 -60 80 l-40 0 0 -60z"/>
<path d="M2984 366 c-8 -22 0 -101 11 -101 6 0 11 21 13 48 2 33 7 47 18 47 7
0 14 5 14 10 0 15 -50 12 -56 -4z"/>
<path d="M3060 320 c0 -33 4 -60 10 -60 6 0 10 27 10 60 0 33 -4 60 -10 60 -6
0 -10 -27 -10 -60z"/>
<path d="M3120 369 c0 -5 8 -9 18 -8 32 3 42 -1 42 -15 0 -9 -12 -16 -32 -18
-29 -3 -33 -6 -33 -33 0 -28 3 -30 43 -33 l42 -3 0 45 c0 65 -7 76 -46 76 -19
0 -34 -5 -34 -11z m60 -69 c0 -15 -7 -20 -25 -20 -24 0 -34 18 -18 33 15 15
43 7 43 -13z"/>
<path d="M2683 323 c9 -2 25 -2 35 0 9 3 1 5 -18 5 -19 0 -27 -2 -17 -5z"/>
<path d="M880 203 c-41 -15 -55 -97 -24 -141 19 -28 74 -30 97 -4 20 22 23
101 5 125 -14 18 -55 29 -78 20z m45 -83 c0 -38 -3 -45 -20 -45 -15 0 -21 8
-23 33 -4 45 4 64 25 60 14 -3 18 -13 18 -48z"/>
<path d="M1440 197 c-21 -11 -25 -21 -28 -66 -4 -65 15 -91 65 -91 41 0 46 27
6 32 -26 3 -28 6 -28 48 0 42 2 45 28 48 20 3 27 8 25 20 -4 22 -36 26 -68 9z"/>
<path d="M1550 190 c-14 -14 -20 -33 -20 -66 0 -68 12 -84 65 -84 55 0 65 27
13 32 -46 4 -53 38 -9 38 21 0 31 5 31 15 0 10 -10 15 -30 15 -20 0 -30 5 -30
15 0 10 10 15 29 15 34 0 51 18 30 31 -24 15 -58 10 -79 -11z"/>
<path d="M1963 203 c-9 -3 -13 -30 -13 -84 0 -72 2 -79 20 -79 16 0 20 7 20
30 0 38 10 38 32 0 10 -18 25 -30 38 -30 20 0 20 1 4 31 -11 23 -13 34 -5 42
19 19 13 65 -11 81 -22 16 -60 20 -85 9z m67 -53 c0 -13 -7 -20 -20 -20 -13 0
-20 7 -20 20 0 13 7 20 20 20 13 0 20 -7 20 -20z"/>
<path d="M2118 199 c-14 -8 -18 -24 -18 -72 0 -36 5 -68 12 -75 18 -18 88 -16
88 3 0 10 -10 15 -30 15 -23 0 -30 4 -30 20 0 16 7 20 30 20 20 0 30 5 30 15
0 10 -10 15 -30 15 -20 0 -30 5 -30 15 0 10 10 15 31 15 24 0 30 4 27 18 -4
20 -54 27 -80 11z"/>
<path d="M780 121 c0 -44 -4 -83 -10 -86 -20 -12 -11 -36 13 -33 21 3 22 8 25
101 2 82 0 97 -13 97 -12 0 -15 -15 -15 -79z"/>
<path d="M1000 120 c0 -73 2 -80 20 -80 18 0 20 7 20 80 0 73 -2 80 -20 80
-18 0 -20 -7 -20 -80z"/>
<path d="M1070 120 c0 -63 3 -80 14 -80 10 0 16 14 18 43 l3 42 25 -43 c18
-30 31 -42 45 -40 18 3 20 12 23 81 3 72 1 77 -18 77 -17 0 -20 -6 -20 -47 l0
-48 -27 48 c-16 29 -33 47 -45 47 -16 0 -18 -9 -18 -80z"/>
<path d="M1220 185 c0 -8 9 -15 20 -15 18 0 20 -7 20 -65 0 -51 3 -65 15 -65
12 0 15 14 15 64 0 59 2 65 22 68 12 2 23 9 26 16 3 9 -13 12 -57 12 -48 0
-61 -3 -61 -15z"/>
<path d="M1660 121 c0 -74 2 -81 19 -81 16 0 20 8 23 43 l3 42 23 -43 c15 -28
29 -42 42 -42 18 0 20 7 20 80 0 64 -3 80 -15 80 -11 0 -15 -11 -15 -40 0 -50
-9 -51 -35 -2 -12 23 -29 38 -42 40 -22 3 -23 1 -23 -77z"/>
<path d="M1810 185 c0 -8 9 -15 20 -15 18 0 20 -7 20 -65 0 -58 2 -65 20 -65
18 0 20 7 20 65 0 58 2 65 20 65 11 0 20 7 20 15 0 12 -13 15 -60 15 -47 0
-60 -3 -60 -15z"/>
</g>
</svg>
