<?xml version="1.0" standalone="no"?>
<!DOCTYPE svg PUBLIC "-//W3C//DTD SVG 20010904//EN"
 "http://www.w3.org/TR/2001/REC-SVG-20010904/DTD/svg10.dtd">
<svg version="1.0" xmlns="http://www.w3.org/2000/svg"
 width="200.000000pt" height="200.000000pt" viewBox="0 0 200.000000 200.000000"
 preserveAspectRatio="xMidYMid meet">
<metadata>
Created by potrace 1.16, written by Peter Selinger 2001-2019
</metadata>
<g transform="translate(0.000000,200.000000) scale(0.100000,-0.100000)"
fill="#000000" stroke="none">
<path d="M815 1629 c-94 -9 -294 -37 -332 -46 l-23 -5 0 -498 0 -497 22 -29
c33 -42 57 -61 110 -89 59 -31 63 -31 33 1 -41 44 -45 98 -45 583 l0 458 133
34 c122 32 143 34 287 34 135 0 169 -4 260 -27 58 -15 117 -31 133 -37 l27
-11 0 -457 c0 -532 5 -501 -100 -564 -86 -53 -165 -81 -214 -77 -40 3 -41 3
-40 41 1 27 11 50 34 78 38 48 50 111 50 274 0 224 -119 755 -169 755 -14 0
-41 -77 -57 -157 -7 -40 -20 -193 -29 -340 -8 -148 -17 -280 -20 -295 -2 -15
0 -30 5 -33 6 -3 10 0 10 7 0 30 81 656 89 683 7 27 8 25 15 -30 4 -33 16 -98
26 -145 24 -112 38 -242 50 -478 9 -183 8 -196 -10 -232 -10 -20 -26 -40 -34
-43 -18 -7 -31 -67 -22 -103 7 -26 8 -27 74 -20 171 16 395 111 442 189 19 31
20 53 20 528 l0 497 -22 5 c-46 11 -246 37 -358 47 -131 11 -216 11 -345 -1z"/>
</g>
</svg>
